Coordinates
version=1
nRows=12
nColumns=34
inDegrees=yes

Units are S.I. units (second, meters, Newtons, ...)
If the header above contains a line with 'inDegrees', this indicates whether rotational values are in degrees (yes) or radians (no).

endheader
time	pelvis_tilt	pelvis_list	pelvis_rotation	pelvis_tx	pelvis_ty	pelvis_tz	hip_flexion_r	hip_adduction_r	hip_rotation_r	knee_angle_r	ankle_angle_r	subtalar_angle_r	mtp_angle_r	hip_flexion_l	hip_adduction_l	hip_rotation_l	knee_angle_l	ankle_angle_l	subtalar_angle_l	mtp_angle_l	lumbar_extension	lumbar_bending	lumbar_rotation	arm_flex_r	arm_add_r	arm_rot_r	elbow_flex_r	pro_sup_r	arm_flex_l	arm_add_l	arm_rot_l	elbow_flex_l	pro_sup_l
      0.00000000	     -1.23942071	     -1.96326856	     -2.00343711	      1.61771392	      0.87106431	     -0.07964321	      0.59587931	     -1.18467496	     -6.07391673	      5.63346177	      4.89478016	     -8.65025281	      0.00000000	     -2.07258822	     -5.11549057	     -2.74442880	      3.87852955	     10.52201381	     -3.08950650	      0.00000000	     -6.07678662	      2.85035268	     -2.72375083	     11.94894402	     -7.58695828	     40.51494581	     71.16801384	     90.30231285	      6.84861226	     -3.95586025	     30.91030577	     56.40917518	     76.90349811
      0.01666670	     -2.54777444	     -1.92076829	     -1.81405138	      1.61907634	      0.86928059	     -0.08057604	      2.00543608	     -0.82037430	     -5.09716312	      5.80593050	      7.59010920	     -7.65852016	      0.00000000	     -0.14708436	     -4.60372737	     -1.94670007	      4.06128201	     11.11378664	     -2.45945497	      0.00000000	     -3.88184271	      3.15793472	     -2.83906550	     11.03596813	     -7.30928666	     38.78483317	     70.71944821	     89.70625283	      6.31486320	     -3.62499016	     29.69913619	     54.97003014	     76.44128604
      0.03333330	     -2.64911054	     -1.22801611	     -1.91380667	      1.61878881	      0.86911703	     -0.07996224	      1.82800497	     -1.55314297	     -5.22970705	      4.99541683	      7.72026194	     -7.49096624	      0.00000000	     -0.14201873	     -3.88564529	     -2.00190022	      3.87813288	     11.06734277	     -2.35882469	      0.00000000	     -3.78010898	      2.24880049	     -2.47550801	     11.06399935	     -7.09129053	     38.51507820	     70.39280102	     89.65515395	      6.65282673	     -4.12769640	     29.36956612	     54.65649923	     76.35494850
      0.05000000	     -2.16653382	     -0.91650597	     -1.90087370	      1.61838687	      0.87090184	     -0.07930295	      1.09044545	     -1.93841036	     -5.28091515	      4.49534736	      8.04272463	     -7.07671397	      0.00000000	     -1.21661820	     -3.50602390	     -1.85379772	      3.01578662	     10.61388930	     -2.45148082	      0.00000000	     -4.17669118	      1.73561113	     -1.91829059	     10.95482761	     -6.83838725	     37.97625194	     69.58153115	     89.59344134	      7.15790982	     -4.25663045	     29.33670776	     54.01167290	     76.35878866
      0.06666670	     -2.23571007	     -0.83664331	     -1.86852730	      1.61781124	      0.87144194	     -0.07872012	      1.04460514	     -1.95527337	     -5.22721947	      4.16992202	      8.15223766	     -7.07632009	      0.00000000	     -1.30366746	     -3.42246007	     -1.68772664	      2.73177956	     10.70885984	     -2.44480021	      0.00000000	     -4.18399078	      1.68844934	     -1.79907515	     10.93039345	     -6.70291326	     38.06382659	     69.67390992	     89.59795845	      7.22861029	     -4.33320462	     29.36401712	     53.98605663	     76.37776003
      0.08333330	     -1.35320477	     -0.77161150	     -1.78912685	      1.61732260	      0.87285140	     -0.07839058	     -0.16491655	     -1.95851935	     -5.12058914	      3.64510333	      8.10933489	     -7.16482220	      0.00000000	     -2.59363427	     -3.29918359	     -1.08114280	      2.09694080	     10.26185734	     -2.98002342	      0.00000000	     -5.15633446	      1.44313612	     -1.49888190	     11.07193166	     -7.28825284	     39.06208782	     71.09760685	     89.60347230	      7.98784318	     -4.46837580	     30.80372422	     53.81013401	     76.92962119
      0.10000000	     -1.32499562	     -0.75806233	     -1.78619998	      1.61690646	      0.87269584	     -0.07820510	     -0.14311712	     -1.93795042	     -5.11848855	      3.62821362	      8.11248171	     -7.16503131	      0.00000000	     -2.59800390	     -3.29192999	     -1.07526844	      2.09571199	     10.26256504	     -2.97868041	      0.00000000	     -5.14908807	      1.44184973	     -1.49819417	     11.07164827	     -7.28177422	     39.06691074	     71.10448790	     89.60343143	      7.99399473	     -4.46448570	     30.80791664	     53.81286232	     76.93149632
      0.11666670	     -0.89577420	     -0.76761607	     -1.64587932	      1.61661354	      0.87277308	     -0.07826616	     -0.81525355	     -1.87344284	     -4.98788766	      3.21296366	      7.96439439	     -7.63464152	      0.00000000	     -3.15853432	     -3.29362948	     -0.42872790	      1.86508547	     10.07011761	     -3.43581053	      0.00000000	     -5.72568437	      1.37374804	     -1.35498335	     11.29761243	     -7.93867074	     40.48470711	     73.10029659	     89.52849125	      8.83266199	     -4.77642791	     32.68294124	     53.87346705	     77.71985888
      0.13333330	     -0.87763716	     -0.75823129	     -1.65114588	      1.61646300	      0.87249980	     -0.07830407	     -0.80506412	     -1.85559894	     -4.98396174	      3.20437939	      7.96519082	     -7.63433991	      0.00000000	     -3.16170287	     -3.29056660	     -0.42234901	      1.87136280	     10.06359384	     -3.43268851	      0.00000000	     -5.72226050	      1.37257434	     -1.35545154	     11.29298061	     -7.93765916	     40.48907564	     73.10356337	     89.52773868	      8.84230562	     -4.77841845	     32.68671325	     53.87503258	     77.72304439
      0.15000000	     -0.87465521	     -0.75400884	     -1.65185556	      1.61644426	      0.87212110	     -0.07842877	     -0.80276065	     -1.85326950	     -4.98354396	      3.20236923	      7.96522322	     -7.63447087	      0.00000000	     -3.16450815	     -3.29315109	     -0.42111108	      1.87359266	     10.06213466	     -3.43206266	      0.00000000	     -5.72182663	      1.37243842	     -1.35567193	     11.29213764	     -7.93789154	     40.49002388	     73.10436611	     89.52767674	      8.84402993	     -4.77949836	     32.68705737	     53.87512679	     77.72344262
      0.16666670	     -0.41005600	     -0.83102440	     -1.49379969	      1.61634164	      0.87228691	     -0.07862298	     -1.49360893	     -1.72989680	     -4.85911450	      2.83845495	      7.52641861	     -8.24316637	      0.00000000	     -3.70006815	     -3.38219424	      0.15861286	      1.78731568	      9.53168052	     -3.90446693	      0.00000000	     -6.35490962	      1.44590170	     -1.29195853	     11.35564247	     -8.73111825	     41.57708347	     74.64877170	     89.37230389	      9.55920700	     -5.28811575	     34.20119518	     53.84297291	     78.49008510
      0.18333330	     -0.41041246	     -0.81868581	     -1.49245277	      1.61666094	      0.87188232	     -0.07836002	     -1.49104200	     -1.72866302	     -4.85700519	      2.83411612	      7.52875677	     -8.24458908	      0.00000000	     -3.70844877	     -3.39206707	      0.15984669	      1.79719163	      9.52704883	     -3.90405896	      0.00000000	     -6.35430109	      1.44879733	     -1.29172949	     11.35149967	     -8.73724615	     41.57740010	     74.64722744	     89.37137696	      9.56368108	     -5.29316021	     34.20225428	     53.84298174	     78.49234423
